<svg width="512" height="512" viewBox="0 0 512 512" xmlns="http://www.w3.org/2000/svg">
  <defs>
    <linearGradient id="gradient" x1="0%" y1="0%" x2="100%" y2="100%">
      <stop offset="0%" style="stop-color:#FF6E00;stop-opacity:1" />
      <stop offset="100%" style="stop-color:#FF8C33;stop-opacity:1" />
    </linearGradient>
    <filter id="shadow" x="-20%" y="-20%" width="140%" height="140%">
      <feDropShadow dx="0" dy="4" stdDeviation="8" flood-color="#000000" flood-opacity="0.25"/>
    </filter>
  </defs>

  <!-- Background circle with shadow -->
  <circle cx="256" cy="256" r="240" fill="url(#gradient)" filter="url(#shadow)"/>

  <!-- Chat bubble icon -->
  <path d="M256 128c-70.7 0-128 48.5-128 108.3 0 29.9 13.4 57.2 35.8 77.9l-22.4 44.7c-2.4 4.8 2.9 10.1 7.7 7.7l44.7-22.4c20.7 22.4 48 35.8 77.9 35.8 70.7 0 128-48.5 128-108.3S326.7 128 256 128z"
        fill="white" opacity="0.95"/>

  <!-- AI spark dots -->
  <circle cx="220" cy="236" r="14" fill="url(#gradient)"/>
  <circle cx="256" cy="236" r="14" fill="url(#gradient)"/>
  <circle cx="292" cy="236" r="14" fill="url(#gradient)"/>
</svg>
